<?xml version="1.0" encoding="utf-8"?>
<!-- Generator: Adobe Illustrator 21.0.2, SVG Export Plug-In . SVG Version: 6.00 Build 0)  -->
<svg version="1.1" id="Layer_1" xmlns="http://www.w3.org/2000/svg" xmlns:xlink="http://www.w3.org/1999/xlink" x="0px" y="0px"
	 viewBox="0 0 225.8 40.8" style="enable-background:new 0 0 225.8 40.8;" xml:space="preserve">
<style type="text/css">
	.st0{fill:#212120;}
	.st1{fill:#F58721;}
</style>
<g>
	<path class="st0" d="M7,9.2c-1.9-1-3.6-1.9-3.6-3.7c0-1.3,1.1-2.8,3-2.8c1.2,0,2.4,0.6,3.3,1.6L10,4.6l1.7-2.1l-0.2-0.2
		C10.2,0.8,8.4,0,6.4,0C3.2,0,0.5,2.5,0.5,5.6c0,3.4,2.6,4.8,4.9,6.1c2,1.1,4,2.1,4,4.4c0,1.8-1.4,3.1-3.4,3.1
		c-1.5,0-2.9-0.7-4.2-2.1l-0.2-0.3l-1.6,2L0.1,19c1.2,1.7,3.5,2.8,5.7,2.8c3.7,0,6.5-2.5,6.5-5.9C12.3,12,9.5,10.5,7,9.2L7,9.2z"/>
	<path class="st0" d="M52.4,0.3v18.4c0,3.8-0.8,6.9-2.5,9.4l-0.2,0.3l2.5,0.9l0.1-0.2c1.9-2.6,2.9-6.3,2.9-10.5V0.3H52.4z"/>
	<polygon class="st0" points="71,2.9 71,0.3 59.1,0.3 59.1,21.5 71,21.5 71,18.9 61.9,18.9 61.9,11.8 68.5,11.8 68.5,9.2 61.9,9.2 
		61.9,2.9 	"/>
	<path class="st0" d="M89.5,16.6c-1.5,1.6-3.6,2.5-5.8,2.5c-4.5,0-8.1-3.7-8.1-8.2c0-4.5,3.6-8.2,8.1-8.2c2.2,0,4.3,0.9,5.8,2.5
		l0.2,0.2l2-1.8l-0.2-0.2C88.7,0.4,85.4,0,83.7,0c-6,0-10.9,4.9-10.9,10.9c0,6,4.9,10.9,10.9,10.9c1.7,0,5.1-0.4,7.9-3.3l0.2-0.2
		l-2-1.8L89.5,16.6z"/>
	<polygon class="st0" points="130.7,10.1 120,0 120,21.5 122.8,21.5 122.8,6.1 130.7,13.6 138.7,6.1 138.7,21.5 141.5,21.5 141.5,0 
			"/>
	<polygon class="st0" points="204.1,2.9 204.1,0.3 192.2,0.3 192.2,21.5 204.1,21.5 204.1,18.9 195,18.9 195,11.8 201.6,11.8 
		201.6,9.2 195,9.2 195,2.9 	"/>
	<path class="st0" d="M224.7,19.2c-1.9,0-3.1-0.2-5.8-3l-2.6-3.2c2.6-0.9,4.3-3.3,4.3-6.1c0-3.7-2.9-6.5-6.7-6.5h-7v21.2h2.8v-8.1
		h3.2l4,4.7c3.1,3.2,4.5,3.7,7.9,3.7V19.2z M209.6,10.8V2.9h4.1c2.4,0,4.1,1.6,4.1,3.9c0,2.3-1.7,3.9-4.1,3.9H209.6z"/>
	<path class="st1" d="M154.9,0l-11.1,21.5h0.6c1.5,0,2.8-0.9,3.6-2.3l7-14l6.4,13.8c0.7,1.5,2.1,2.4,3.6,2.4h0.5L154.9,0z"/>
	<path class="st0" d="M29.2,0.3v10.8c0,5.3-1.7,7.8-5.4,7.8c-3.7,0-5.4-2.5-5.4-7.8V0.3h-3.2v10.8c0,7,3,10.8,8.7,10.8
		c5.6,0,8.6-3.7,8.6-10.8V0.3H29.2z"/>
	<path class="st0" d="M45.7,9.8c1-1,1.6-2.5,1.6-4c0-3.2-2.3-5.5-5.5-5.5h-6.4v21.2h7c3.9,0,6.7-2.6,6.7-6.2
		C49.2,12.8,47.9,10.8,45.7,9.8L45.7,9.8z M38.3,2.9h3.3c1.8,0,3,1.3,3,3c0,1.7-1.2,3.1-2.9,3.1h-3.4V2.9z M42.4,18.9h-4.1v-7.2h4.1
		c2.5,0,4.1,1.4,4.1,3.6C46.5,17.4,44.8,18.9,42.4,18.9L42.4,18.9z"/>
	<polygon class="st0" points="177.4,0.3 177.4,2.9 182.1,2.9 182.1,21.5 184.9,21.5 184.9,2.9 189.6,2.9 189.6,0.3 	"/>
	<polygon class="st0" points="163.5,0.3 163.5,2.9 168.2,2.9 168.2,21.5 170.9,21.5 170.9,2.9 175.6,2.9 175.6,0.3 	"/>
	<polygon class="st0" points="94.5,0.3 94.5,2.9 99.2,2.9 99.2,21.5 102,21.5 102,2.9 106.7,2.9 106.7,0.3 	"/>
</g>
<g>
	<path class="st0" d="M190.5,33.9c-0.2-0.1-0.4-0.1-0.6-0.1c-0.3,0-0.5,0-0.7,0.1l-1.2,3.7c-0.2,0.5-0.3,1.2-0.4,1.9l0,0.1h-0.2
		l0-0.1c-0.1-0.8-0.2-1.3-0.4-1.9l-1.2-3.8c-0.2-0.1-0.4-0.1-0.7-0.1c-0.3,0-0.5,0-0.7,0.1l2.2,6.6c0.4,0.1,1.2,0.1,1.6,0
		L190.5,33.9z"/>
	<path class="st0" d="M183.6,37.2c0-2.2-1.3-3.4-3.7-3.4c-0.8,0-1.4,0.1-2,0.2v6.6c0.6,0.1,1.3,0.1,2.2,0.1
		C182.7,40.6,183.6,38.8,183.6,37.2z M179.2,39.5v-4.5l0.1,0c0.2-0.1,0.5-0.1,0.7-0.1c1.5,0,2.3,0.8,2.3,2.4c0,1.5-0.8,2.3-2.1,2.3
		C179.8,39.5,179.5,39.5,179.2,39.5L179.2,39.5z"/>
	<path class="st0" d="M194.6,33.6c-1.9,0-3.2,1.4-3.2,3.5c0,2.4,1.1,3.6,3.2,3.6c2,0,3.2-1.4,3.2-3.6
		C197.7,34.9,196.6,33.6,194.6,33.6z M194.6,39.6c-1.2,0-1.8-0.9-1.8-2.5c0-1.5,0.7-2.4,1.8-2.4c1.1,0,1.8,0.9,1.8,2.4
		C196.4,38.7,195.7,39.6,194.6,39.6z"/>
	<path class="st0" d="M172.6,33.9l-2.3,6.6c0.1,0.1,0.3,0.1,0.6,0.1c0.3,0,0.5,0,0.7-0.1l0.5-1.5h2.5l0.5,1.5
		c0.2,0.1,0.4,0.1,0.7,0.1c0.4,0,0.6,0,0.7-0.1l-2.3-6.6C173.8,33.8,173,33.8,172.6,33.9z M172.4,37.9l0.4-1.2
		c0.2-0.6,0.4-1.3,0.5-2l0-0.1h0.2l0,0.1c0.1,0.8,0.3,1.4,0.4,2l0.4,1.2H172.4z"/>
	<path class="st0" d="M167.2,39.5H164v-1.8h2.9c0-0.1,0.1-0.3,0.1-0.5c0-0.2,0-0.4-0.1-0.5H164v-1.7h3.1c0-0.1,0.1-0.3,0.1-0.5
		c0-0.2,0-0.4-0.1-0.5h-4.4v6.7h4.5c0-0.1,0.1-0.3,0.1-0.6C167.3,39.8,167.3,39.6,167.2,39.5z"/>
	<path class="st0" d="M221.6,40.6c0.3,0,0.5,0,0.6-0.1l0-2.2l2.2-4.4c-0.1-0.1-0.3-0.1-0.6-0.1c-0.3,0-0.6,0-0.7,0.1l-0.9,1.7
		c-0.2,0.4-0.4,1-0.5,1.6l0,0.1h-0.2l0-0.1c-0.1-0.5-0.3-1.2-0.5-1.6l-0.9-1.7c-0.2-0.1-0.4-0.1-0.7-0.1c-0.3,0-0.5,0-0.7,0.1
		l2.2,4.4v2.2C221.1,40.5,221.3,40.6,221.6,40.6z"/>
	<path class="st0" d="M215.9,33.6c-2.1,0-3.4,1.4-3.4,3.7c0,2.2,1.2,3.5,3.2,3.5c0.6,0,1.2-0.1,1.6-0.3c0.2-0.3,0.3-0.8,0.4-1.1
		c-0.3,0.1-0.9,0.3-1.5,0.3c-1.5,0-2.3-0.9-2.3-2.4c0-1.6,0.8-2.4,2.4-2.4c0.5,0,0.9,0.1,1.4,0.3c0-0.4-0.1-0.9-0.3-1.1
		C217,33.7,216.5,33.6,215.9,33.6z"/>
	<path class="st0" d="M202.6,33.6c-2.1,0-3.4,1.4-3.4,3.7c0,2.2,1.2,3.5,3.2,3.5c0.6,0,1.2-0.1,1.6-0.3c0.2-0.3,0.3-0.8,0.4-1.1
		c-0.3,0.1-0.9,0.3-1.5,0.3c-1.5,0-2.3-0.9-2.3-2.4c0-1.6,0.8-2.4,2.4-2.4c0.5,0,0.9,0.1,1.4,0.3c0-0.4-0.1-0.9-0.3-1.1
		C203.7,33.7,203.2,33.6,202.6,33.6z"/>
	<path class="st0" d="M207.7,33.9l-2.3,6.6c0.1,0.1,0.3,0.1,0.6,0.1c0.3,0,0.5,0,0.7-0.1l0.5-1.5h2.5l0.5,1.5
		c0.2,0.1,0.4,0.1,0.7,0.1c0.4,0,0.6,0,0.7-0.1l-2.3-6.6C208.9,33.8,208.1,33.8,207.7,33.9z M207.6,37.9l0.4-1.2
		c0.2-0.6,0.4-1.3,0.5-1.9l0-0.1h0.2l0,0.1c0.1,0.8,0.3,1.4,0.4,1.9l0.4,1.2H207.6z"/>
	<path class="st0" d="M153.8,40.5v-6.6c-0.1-0.1-0.4-0.1-0.6-0.1c-0.3,0-0.5,0-0.7,0.1v6.6c0.1,0.1,0.4,0.1,0.7,0.1
		C153.5,40.6,153.7,40.5,153.8,40.5z"/>
	<path class="st0" d="M161.3,33.9c-0.2-0.1-0.4-0.1-0.6-0.1c-0.3,0-0.5,0-0.7,0.1l-1.2,3.7c-0.2,0.6-0.3,1.2-0.4,1.8l0,0.1h-0.2
		l0-0.1c-0.1-0.7-0.2-1.2-0.4-1.8l-1.2-3.8c-0.2-0.1-0.4-0.1-0.7-0.1c-0.3,0-0.5,0-0.7,0.1l2.2,6.6c0.4,0.1,1.2,0.1,1.6,0
		L161.3,33.9z"/>
	<path class="st0" d="M138.1,39.5h-3.2v-1.8h2.9c0-0.1,0.1-0.3,0.1-0.5c0-0.2,0-0.4-0.1-0.5h-2.9v-1.7h3.1c0-0.1,0.1-0.3,0.1-0.5
		c0-0.2,0-0.4-0.1-0.5h-4.4v6.7h4.5c0-0.1,0.1-0.3,0.1-0.6C138.1,39.8,138.1,39.6,138.1,39.5z"/>
	<path class="st0" d="M128,40.5v-2.4l0.1,0c0.2,0,0.7,0.1,1,0.1h0.2l0,0l1.3,2.2c0.2,0.1,0.5,0.1,0.9,0.1c0.3,0,0.5,0,0.7-0.1
		l-1.6-2.6l0.1,0c0.7-0.4,1-1,1-1.9c0-1.5-1-2.2-3-2.2c-0.7,0-1.4,0.1-1.9,0.2v6.6c0.1,0.1,0.4,0.1,0.7,0.1
		C127.6,40.6,127.8,40.5,128,40.5z M128,34.9L128,34.9c0.3,0,0.5-0.1,0.7-0.1c1.1,0,1.6,0.4,1.6,1.2c0,0.7-0.5,1.1-1.4,1.1
		c-0.3,0-0.6,0-0.8-0.1l-0.1,0V34.9z"/>
	<path class="st0" d="M123.3,33.6c-2.1,0-3.4,1.4-3.4,3.7c0,2.2,1.2,3.5,3.2,3.5c0.6,0,1.2-0.1,1.6-0.3c0.2-0.3,0.3-0.8,0.4-1.1
		c-0.3,0.1-0.9,0.3-1.5,0.3c-1.5,0-2.3-0.9-2.3-2.4c0-1.6,0.8-2.4,2.4-2.4c0.5,0,0.9,0.1,1.4,0.3c0-0.4-0.1-0.9-0.3-1.1
		C124.4,33.7,123.9,33.6,123.3,33.6z"/>
	<path class="st0" d="M148.4,40.6c0.3,0,0.5,0,0.6-0.1V35h2c0-0.1,0.1-0.3,0.1-0.6c0-0.2,0-0.4-0.1-0.6h-5.2c0,0.1-0.1,0.3-0.1,0.6
		c0,0.2,0,0.4,0.1,0.6h2v5.5C147.8,40.5,148,40.6,148.4,40.6z"/>
	<path class="st0" d="M141.6,33.9l-2.3,6.6c0.1,0.1,0.3,0.1,0.6,0.1c0.3,0,0.5,0,0.7-0.1l0.5-1.5h2.5l0.5,1.5
		c0.2,0.1,0.4,0.1,0.7,0.1c0.4,0,0.6,0,0.7-0.1l-2.3-6.6C142.8,33.8,142,33.8,141.6,33.9z M141.5,37.9l0.4-1.2
		c0.2-0.6,0.4-1.3,0.5-2l0-0.1h0.2l0,0.1c0.1,0.8,0.3,1.4,0.4,2l0.4,1.2H141.5z"/>
</g>
</svg>
